<svg xmlns="http://www.w3.org/2000/svg" viewBox="0 0 1000 410" role="img" aria-label="Text-guided image colorization"><defs><marker id="arrow" viewBox="0 0 10 10" refX="9" refY="5" markerWidth="7" markerHeight="7" orient="auto-start-reverse"><path d="M0 0 10 5 0 10Z" fill="#1f45c4"/></marker></defs><rect width="1000" height="410" fill="white"/><g font-family="Arial,sans-serif" fill="#171a1f"><text x="28" y="48" font-size="27" font-weight="700">Text-guided image colorization</text><text x="28" y="78" font-size="17" fill="#5d6470">Method overview / complementary generators and text-image selection</text><rect x="28.0" y="120" width="216.5" height="185" rx="8" fill="white" stroke="#1f45c4" stroke-width="2"/><text x="43.0" y="150" font-size="13" fill="#5d6470">01</text><text x="43.0" y="188" font-size="21" font-weight="700">Input</text><text x="43.0" y="226" font-size="16" fill="#5d6470">Grayscale image</text><text x="43.0" y="252" font-size="16" fill="#5d6470">Text description</text><path d="M248.5 211h18" stroke="#1f45c4" stroke-width="2" marker-end="url(#arrow)"/><rect x="270.5" y="120" width="216.5" height="185" rx="8" fill="white" stroke="#1f45c4" stroke-width="2"/><text x="285.5" y="150" font-size="13" fill="#5d6470">02</text><text x="285.5" y="188" font-size="21" font-weight="700">Candidates</text><text x="285.5" y="226" font-size="16" fill="#5d6470">DDColor</text><text x="285.5" y="252" font-size="16" fill="#5d6470">FLUX + ControlNet</text><path d="M491.0 211h18" stroke="#1f45c4" stroke-width="2" marker-end="url(#arrow)"/><rect x="513.0" y="120" width="216.5" height="185" rx="8" fill="white" stroke="#1f45c4" stroke-width="2"/><text x="528.0" y="150" font-size="13" fill="#5d6470">03</text><text x="528.0" y="188" font-size="21" font-weight="700">Selection</text><text x="528.0" y="226" font-size="16" fill="#5d6470">CLIP similarity</text><text x="528.0" y="252" font-size="16" fill="#5d6470">Per-image ranking</text><path d="M733.5 211h18" stroke="#1f45c4" stroke-width="2" marker-end="url(#arrow)"/><rect x="755.5" y="120" width="216.5" height="185" rx="8" fill="white" stroke="#1f45c4" stroke-width="2"/><text x="770.5" y="150" font-size="13" fill="#5d6470">04</text><text x="770.5" y="188" font-size="21" font-weight="700">Output</text><text x="770.5" y="226" font-size="16" fill="#5d6470">Selected color image</text><text x="770.5" y="252" font-size="16" fill="#5d6470">Submission package</text><path d="M28 341H972" stroke="#171a1f" opacity=".12"/></g></svg>